<svg xmlns="http://www.w3.org/2000/svg" aria-hidden="true" overflow="hidden" style="position:absolute;width:0;height:0">
  <defs>
    <symbol id="icon-arrow-left" viewBox="0 0 52 32">
      <path stroke-width="2.909" d="M34.909.727c0 1.619 1.599 4.036 3.218 6.065 2.081 2.618 4.569 4.903 7.42 6.646 2.138 1.307 4.73 2.561 6.816 2.561m.001.001c-2.086 0-4.68 1.255-6.816 2.561-2.852 1.745-5.339 4.03-7.42 6.644-1.619 2.031-3.218 4.453-3.218 6.068M52.364 16H0"/>
    </symbol>
    <symbol id="icon-arrow-right" viewBox="0 0 52 32">
      <path stroke-width="2.909" d="M17.455.727c0 1.619-1.599 4.036-3.218 6.065-2.081 2.618-4.569 4.903-7.42 6.646-2.138 1.307-4.73 2.561-6.816 2.561M0 16c2.086 0 4.68 1.255 6.816 2.561 2.852 1.745 5.339 4.03 7.42 6.644 1.619 2.031 3.218 4.453 3.218 6.068M0 16h52.364"/>
    </symbol>
    <symbol id="icon-tik-tok" viewBox="0 0 27 32">
      <path d="M14.358 1.738c1.559-.024 3.107-.012 4.655-.024.095 1.821.75 3.679 2.083 4.964 1.333 1.321 3.214 1.929 5.047 2.131v4.798c-1.714-.06-3.44-.417-5-1.155-.679-.31-1.309-.702-1.928-1.107-.012 3.476.012 6.952-.024 10.417-.095 1.667-.643 3.321-1.607 4.69-1.559 2.286-4.262 3.774-7.035 3.821-1.702.095-3.405-.369-4.857-1.226-2.405-1.417-4.095-4.012-4.345-6.798a21.899 21.899 0 0 1-.012-1.774 8.933 8.933 0 0 1 3.071-5.905c1.976-1.714 4.738-2.536 7.321-2.048.024 1.762-.048 3.524-.048 5.286-1.179-.381-2.559-.274-3.595.44a4.136 4.136 0 0 0-1.619 2.083c-.25.607-.179 1.274-.167 1.917.286 1.952 2.167 3.595 4.166 3.417 1.333-.012 2.607-.786 3.297-1.917.226-.393.476-.798.488-1.262.119-2.131.071-4.25.083-6.381.012-4.798-.012-9.583.024-14.369z"/>
    </symbol>
    <symbol id="icon-arrow-down" viewBox="0 0 32 32">
      <path d="M16.943 20.943a1.333 1.333 0 0 1-1.886 0L7.514 13.4a1.339 1.339 0 0 1-.308-1.464 1.342 1.342 0 0 1 .729-.729 1.324 1.324 0 0 1 1.031.009c.163.07.31.171.433.299l6.6 6.6 6.6-6.6a1.332 1.332 0 0 1 1.869.016 1.33 1.33 0 0 1 .017 1.869l-7.543 7.543z"/>
    </symbol>
    <symbol id="icon-arrow-up" viewBox="0 0 32 32">
      <path d="M15.057 11.057a1.333 1.333 0 0 1 1.886 0l7.543 7.543a1.332 1.332 0 0 1-.016 1.869 1.33 1.33 0 0 1-1.869.017l-6.6-6.6-6.6 6.6a1.332 1.332 0 0 1-2.259-.948 1.335 1.335 0 0 1 .374-.938l7.543-7.543z"/>
    </symbol>
    <symbol id="icon-arrow-narrow-left" viewBox="0 0 32 32">
      <path stroke-linecap="round" stroke-linejoin="round" stroke-width="2" d="M26.667 16H5.334m7.999 8-8-8 8-8"/>
    </symbol>
    <symbol id="icon-arrow-narrow-right" viewBox="0 0 32 32">
      <path stroke-linecap="round" stroke-linejoin="round" stroke-width="2" d="M5.333 16h21.333m-7.999-8 8 8-8 8"/>
    </symbol>
    <symbol id="icon-facebook" viewBox="0 0 32 32">
      <path d="M21.333 5.333H24V0c-.504-.069-1.981 0-4 0-4.212 0-8 3.135-8 8v4H8v5.333h4V32h6.667V17.333h4L24 12h-5.333V8c.001-1.642.376-2.667 2.667-2.667z"/>
    </symbol>
    <symbol id="icon-instagram" viewBox="0 0 32 32">
      <path d="M31.969 9.408c-.075-1.7-.35-2.869-.744-3.882a7.803 7.803 0 0 0-1.85-2.838A7.867 7.867 0 0 0 26.543.844C25.524.45 24.361.175 22.661.1 20.948.019 20.404 0 16.06 0s-4.888.019-6.595.094c-1.7.075-2.869.35-3.882.744a7.803 7.803 0 0 0-2.838 1.85A7.867 7.867 0 0 0 .901 5.52C.507 6.539.232 7.702.157 9.402c-.081 1.713-.1 2.257-.1 6.601s.019 4.888.094 6.595c.075 1.7.35 2.869.744 3.882a7.895 7.895 0 0 0 1.85 2.838 7.867 7.867 0 0 0 2.832 1.844c1.019.394 2.182.669 3.882.744 1.706.075 2.25.094 6.595.094s4.888-.019 6.595-.094c1.7-.075 2.869-.35 3.882-.744a8.181 8.181 0 0 0 4.682-4.682c.394-1.019.669-2.182.744-3.882.075-1.707.094-2.25.094-6.595s-.006-4.888-.081-6.595zm-2.882 13.065c-.069 1.563-.331 2.407-.55 2.969a5.31 5.31 0 0 1-3.038 3.038c-.563.219-1.413.481-2.969.55-1.688.075-2.194.094-6.464.094s-4.782-.019-6.464-.094c-1.563-.069-2.407-.331-2.969-.55a4.926 4.926 0 0 1-1.838-1.194 4.974 4.974 0 0 1-1.194-1.838c-.219-.563-.481-1.413-.55-2.969-.075-1.688-.094-2.194-.094-6.464s.019-4.782.094-6.464c.069-1.563.331-2.407.55-2.969a4.868 4.868 0 0 1 1.2-1.838A4.974 4.974 0 0 1 6.639 3.55c.563-.219 1.413-.481 2.969-.55 1.688-.075 2.194-.094 6.464-.094 4.276 0 4.782.019 6.464.094 1.563.069 2.407.331 2.969.55a4.914 4.914 0 0 1 1.838 1.194 4.974 4.974 0 0 1 1.194 1.838c.219.563.481 1.413.55 2.969.075 1.688.094 2.194.094 6.464s-.019 4.77-.094 6.458z"/>
      <path d="M16.059 7.783c-4.538 0-8.22 3.682-8.22 8.22s3.682 8.22 8.22 8.22c4.539 0 8.22-3.682 8.22-8.22s-3.682-8.22-8.22-8.22zm0 13.552a5.333 5.333 0 0 1 0-10.664 5.333 5.333 0 0 1 0 10.664zM26.524 7.458a1.919 1.919 0 1 1-3.838 0 1.919 1.919 0 0 1 3.838 0z"/>
    </symbol>
    <symbol id="icon-threads" viewBox="0 0 32 32">
      <path d="M23.858 17.227c-.439-.35-.709-2.34-1.21-2.594-.411-3.875-2.535-4.834-3.699-5.223-2.53-.845-6.324-.897-7.712 1.07-.078.111-.005 1.147-.035 1.28-.023-.134-.03.132 0 0 .046.27-.259 1.121-.035 1.28-.27.046.224.158 0 0 .134-.023 1.165.107 1.28.035s-.043-1.169.035-1.28c.855-1.213 3.504-1.688 5.153-1.14 1.273.423 2.097 1.235 2.489 2.629-.647-.142-.618-.018-1.279-.035-1.795-.049-5.156.298-6.433 1.105-1.503.958-1.373 3.404-1.419 5.083-.073 2.659.881 5.146 3.699 5.223.829.017 3.104-.867 3.873-1.175s.725-.661 1.315-1.245c.854-.843 2.39-1.354 2.664-3.769-.045-.036.048.035 0 0 1.277 1.023 1.222 2.153 1.175 3.874-.068 2.501-3.465 5.027-9.096 4.874-3.448-.094-4.861-.394-6.328-2.734-1.204-1.915-1.163-4.32-1.07-7.712s.218-7.075 1.524-8.922c1.592-2.256 3.02-2.479 6.467-2.384 4.247.116 8.869.558 10.131 4.118.044.129-.125 1.177-.035 1.28-.123-.06.09.102 0 0-.136-.008.123.06 0 0 .136.008 1.151.081 1.279.035-.101.092.129-.046 0 0 .101-.092-.023-1.156.035-1.28-.006.137.058-.124 0 0 .006-.137.047.128 0 0-1.531-4.335-6.285-6.574-11.341-6.712-4.127-.113-5.788.804-7.782 3.629-1.545 2.19-2.734 6.358-2.838 10.166s.891 6.755 2.315 9.027c1.837 2.929 3.445 3.935 7.572 4.048 3.878.106 7.638-1.109 9.026-2.315 1.705-1.481 2.646-3.111 2.699-5.048.065-2.369-.636-3.76-2.419-5.188zm-5.223 3.699c-.391.389-.803 1.039-1.314 1.245s-2.008-.06-2.559-.07c-1.394-.038-2.537-.882-2.489-2.629.045-1.631 3.061-2.477 6.467-2.384.767.019.547-.195 1.28.035-.05 1.819-.393 2.827-1.384 3.804z"/>
    </symbol>
    <symbol id="icon-telegram" viewBox="0 0 32 32">
      <path d="m29.248 6.893-4.04 18.913c-.301 1.332-1.075 1.632-2.192 1.031l-6.06-4.469-2.967 2.836c-.3.301-.601.603-1.289.603l.473-6.233L24.477 9.302c.472-.473-.129-.645-.731-.257L9.691 17.898 3.63 16.05c-1.332-.429-1.332-1.333.301-1.933l23.553-9.156c1.16-.344 2.149.259 1.763 1.933z"/>
    </symbol>
    <symbol id="icon-youtube" viewBox="0 0 32 32">
      <path d="M30.667 12c.065-1.82-.477-3.708-1.333-5.333-.581-.667-1.775-1.179-2.667-1.333-3.686-.322-6.966-.059-10.667 0-3.687-.06-6.993-.314-10.667 0-.726.127-2.131.846-2.667 1.333-1.192 1.055-1.201 2.474-1.333 4-.193 2.744-.193 6.59 0 9.333.039.859-.225 1.835 0 2.667.16.642.876.84 1.333 1.333.54.513 1.92 1.2 2.667 1.333 2.856.339 5.123.06 8 0 4.637.064 8.524.356 13.333 0 .764-.127 2.111-.814 2.667-1.333.371-.357-.161-.854 0-1.333.473-1.396 1.35-2.533 1.333-4 .053-.712 0-5.904 0-6.667zm-17.334 6.667v-8l8 4c-2.199 1.17-5.258 2.576-8 4z"/>
    </symbol>
    <symbol id="icon-x" viewBox="0 0 32 32">
      <path stroke-linecap="round" stroke-linejoin="round" stroke-width="2.286" d="M24 8 8 24M8 8l16 16"/>
    </symbol>
  </defs>
</svg>
