<svg width="22" height="22" viewBox="0 0 22 22" fill="none" xmlns="http://www.w3.org/2000/svg">
<path d="M11 21C16.523 21 21 16.523 21 11C21 5.477 16.523 1 11 1C5.477 1 1 5.477 1 11C1 12.379 1.28 13.693 1.784 14.888C2.063 15.548 2.202 15.878 2.22 16.128C2.237 16.378 2.163 16.652 2.016 17.201L1 21L4.799 19.984C5.348 19.837 5.622 19.764 5.872 19.78C6.122 19.798 6.452 19.937 7.112 20.216C8.34266 20.7343 9.66465 21.0009 11 21Z" stroke="#FBFBFB" stroke-width="1.5" stroke-linecap="round" stroke-linejoin="round"/>
<path d="M11.882 11C13.052 11 14 12.007 14 13.25C14 14.493 13.052 15.5 11.882 15.5H9.412C8.746 15.5 8.414 15.5 8.207 15.297C8 15.094 8 14.768 8 14.115V11M11.882 11C13.052 11 14 9.993 14 8.75C14 7.507 13.052 6.5 11.882 6.5H9.412C8.746 6.5 8.414 6.5 8.207 6.703C8 6.906 8 7.232 8 7.885V11M11.882 11H8" stroke="#FBFBFB" stroke-width="1.5" stroke-linecap="round" stroke-linejoin="round"/>
</svg>
