<svg width="23" height="25" viewBox="0 0 23 25" fill="none" xmlns="http://www.w3.org/2000/svg">
<path d="M17.6389 13.4588C17.2963 13.1856 17.0846 11.6304 16.6939 11.4323C16.3731 8.40463 14.7134 7.65548 13.8041 7.35191C11.8275 6.69197 8.86367 6.65097 7.77905 8.18787C7.71789 8.27453 7.77517 9.08399 7.75178 9.1875C7.73384 9.0829 7.72838 9.291 7.75178 9.1875C7.78799 9.39873 7.54976 10.0634 7.7245 10.1871C7.5136 10.2234 7.89924 10.3108 7.7245 10.1871C7.82893 10.1692 8.63451 10.271 8.72413 10.2144C8.81374 10.1578 8.69024 9.30144 8.7514 9.21477C9.4196 8.26745 11.4891 7.89622 12.7772 8.32426C13.7715 8.65439 14.4158 9.28902 14.7219 10.3781C14.2167 10.2673 14.2393 10.364 13.7223 10.3508C12.3196 10.3125 9.6942 10.5837 8.69685 11.214C7.52282 11.9627 7.62391 13.8733 7.58811 15.1853C7.53143 17.2623 8.27619 19.2055 10.4779 19.2656C11.1254 19.2789 12.9025 18.5883 13.504 18.3478C14.1056 18.1073 14.0705 17.8317 14.531 17.3755C15.1983 16.717 16.3982 16.318 16.612 14.4311C16.5765 14.4029 16.6496 14.4584 16.612 14.4311C17.6097 15.23 17.5665 16.113 17.5298 17.4573C17.4765 19.4112 14.8227 21.3849 10.4233 21.2649C7.72991 21.1914 6.62581 20.9573 5.47974 19.1292C4.53941 17.633 4.57146 15.7544 4.64378 13.1042C4.7161 10.4539 4.81382 7.57676 5.83435 6.13406C7.07841 4.37123 8.19363 4.19769 10.887 4.27119C14.2052 4.36173 17.8163 4.70714 18.8022 7.48829C18.8367 7.58939 18.7043 8.40793 18.775 8.48792C18.6789 8.44139 18.8457 8.56791 18.775 8.48792C18.6685 8.48203 18.871 8.53445 18.775 8.48792C18.8815 8.49381 19.674 8.55087 19.7746 8.5152C19.6955 8.58691 19.8751 8.47953 19.7746 8.5152C19.8537 8.44349 19.7565 7.61226 19.8019 7.51557C19.7972 7.6223 19.8472 7.41888 19.8019 7.51557C19.8066 7.40884 19.8386 7.61587 19.8019 7.51557C18.6056 4.12875 14.8915 2.37972 10.9416 2.27193C7.71716 2.18394 6.41968 2.90041 4.862 5.10715C3.65465 6.81846 2.72571 10.0744 2.64453 13.0496C2.56334 16.0249 3.34061 18.327 4.45284 20.1016C5.88785 22.39 7.14433 23.1761 10.3688 23.2641C13.3987 23.3468 16.3362 22.3978 17.4207 21.4558C18.7531 20.2984 19.4878 19.0257 19.5291 17.5119C19.5796 15.6609 19.0323 14.5745 17.6389 13.4588ZM13.5586 16.3486C13.253 16.6526 12.9313 17.1601 12.5317 17.3209C12.132 17.4818 10.9631 17.2741 10.5324 17.2664C9.44318 17.2366 8.5505 16.577 8.58774 15.2125C8.62252 13.9379 10.9793 13.2771 13.6404 13.3497C14.2397 13.3646 14.0679 13.1977 14.6401 13.377C14.6013 14.798 14.3327 15.5859 13.5586 16.3486Z" fill="#2F4960"/>
</svg>
