<svg width="14" height="13" viewBox="0 0 14 13" fill="none" xmlns="http://www.w3.org/2000/svg">
<path fill-rule="evenodd" clip-rule="evenodd" d="M9.509 1.35088C9.45538 1.2889 9.38816 1.24015 9.3126 1.20843C9.23703 1.1767 9.15516 1.16287 9.07337 1.168C8.99157 1.17313 8.91207 1.19709 8.84106 1.238C8.77005 1.27892 8.70946 1.33569 8.664 1.40388L8.433 1.75088L7.894 2.82888C7.71797 3.18052 7.4476 3.47628 7.11312 3.68307C6.77865 3.88987 6.39324 3.99956 6 3.99988H5C4.86739 3.99988 4.74021 3.9472 4.64645 3.85344C4.55268 3.75967 4.5 3.63249 4.5 3.49988C4.5 3.36727 4.55268 3.2401 4.64645 3.14633C4.74021 3.05256 4.86739 2.99988 5 2.99988H6C6.423 2.99988 6.81 2.76188 7 2.38288L7.553 1.27688L7.583 1.22388L7.833 0.850882C7.96382 0.654662 8.13817 0.491292 8.34247 0.373498C8.54678 0.255705 8.77552 0.186667 9.01087 0.171764C9.24623 0.15686 9.48185 0.196493 9.69938 0.287576C9.91691 0.378658 10.1105 0.518731 10.265 0.696882C10.615 1.10188 10.792 1.62888 10.757 2.16288L10.749 2.28388C10.7123 2.82433 10.6071 3.35793 10.436 3.87188L10.393 3.99988H12.166C12.4866 3.99963 12.8017 4.08339 13.0799 4.24282C13.3581 4.40225 13.5896 4.63178 13.7515 4.90855C13.9133 5.18532 13.9998 5.49967 14.0024 5.82028C14.0049 6.14089 13.9234 6.45657 13.766 6.73588L13.648 6.94588C13.841 7.61588 13.66 8.34688 13.157 8.84988L13.062 8.94488C13.308 9.93488 12.812 10.9539 11.901 11.3789L11.791 11.7089C11.6654 12.0846 11.425 12.4114 11.1036 12.6431C10.7822 12.8747 10.3962 12.9996 10 12.9999H9.079C8.29184 12.999 7.51558 12.8159 6.811 12.4649C6.07716 12.0984 5.4075 11.6154 4.828 11.0349L4.646 10.8539C4.55211 10.7601 4.49932 10.6329 4.49922 10.5002C4.49913 10.3676 4.55175 10.2403 4.6455 10.1464C4.73925 10.0525 4.86646 9.9997 4.99915 9.9996C5.13183 9.99951 5.25911 10.0521 5.353 10.1459L5.535 10.3279C6.03851 10.8322 6.62038 11.2516 7.258 11.5699C7.82344 11.8515 8.44631 11.9987 9.078 11.9999H10C10.1862 11.9995 10.3676 11.9407 10.5187 11.8318C10.6697 11.7229 10.7828 11.5694 10.842 11.3929L11.021 10.8569C11.047 10.7786 11.0909 10.7074 11.1492 10.6491C11.2076 10.5908 11.2787 10.5469 11.357 10.5209C11.93 10.3299 12.249 9.71888 12.078 9.13888L12.026 8.96088C11.9993 8.86852 11.9977 8.7707 12.0214 8.67753C12.0452 8.58435 12.0934 8.49921 12.161 8.43088L12.45 8.14288C12.584 8.00966 12.6743 7.83878 12.7088 7.65299C12.7432 7.4672 12.7203 7.27531 12.643 7.10288C12.6114 7.03173 12.5968 6.95417 12.6005 6.8764C12.6041 6.79862 12.6259 6.72276 12.664 6.65488L12.894 6.24488C12.9653 6.11774 13.0022 5.97417 13.0008 5.82839C12.9995 5.68262 12.9601 5.53973 12.8866 5.41389C12.813 5.28805 12.7078 5.18363 12.5814 5.11101C12.455 5.03839 12.3118 5.00008 12.166 4.99988H10.206C10.069 4.99998 9.9339 4.96748 9.81191 4.90508C9.68992 4.84267 9.58453 4.75215 9.50442 4.64098C9.42432 4.52981 9.3718 4.40119 9.35121 4.26572C9.33062 4.13025 9.34255 3.99183 9.386 3.86188L9.488 3.55488C9.63185 3.12179 9.72022 2.6722 9.751 2.21688L9.759 2.09588C9.7774 1.82427 9.68751 1.55642 9.509 1.35088ZM3 3.64688C3 3.59384 2.97893 3.54297 2.94142 3.50546C2.90391 3.46795 2.85304 3.44688 2.8 3.44688H1.2C1.14696 3.44688 1.09609 3.46795 1.05858 3.50546C1.02107 3.54297 1 3.59384 1 3.64688V10.3529C1 10.4629 1.09 10.5529 1.2 10.5529H2.8C2.85304 10.5529 2.90391 10.5318 2.94142 10.4943C2.97893 10.4568 3 10.4059 3 10.3529V3.64688ZM1 2.49988C0.448 2.49988 0 2.92388 0 3.44688V10.5529C0 11.0759 0.448 11.4999 1 11.4999H3C3.552 11.4999 4 11.0759 4 10.5529V3.44688C4 2.92388 3.552 2.49988 3 2.49988H1Z" fill="#FBFBFB"/>
</svg>
