<svg width="12" height="14" viewBox="0 0 12 14" fill="none" xmlns="http://www.w3.org/2000/svg">
<path fill-rule="evenodd" clip-rule="evenodd" d="M6.28147 0.760422C6.96375 0.75 7.6408 0.755203 8.31784 0.75C8.35951 1.54688 8.64597 2.35936 9.22925 2.92184C9.81256 3.49997 10.6355 3.76559 11.4375 3.85413V5.95306C10.6875 5.92702 9.93234 5.77077 9.25009 5.44786C8.95322 5.31244 8.6772 5.14056 8.40637 4.96348C8.40117 6.4843 8.41159 8.00512 8.39597 9.52072C8.3543 10.2499 8.11472 10.9738 7.69287 11.5728C7.01061 12.5728 5.82837 13.2238 4.61487 13.2446C3.87012 13.2863 3.12536 13.0832 2.48997 12.7082C1.43794 12.0884 0.698375 10.953 0.589015 9.73427C0.578593 9.47384 0.57339 9.21344 0.583796 8.95823C0.677546 7.96866 1.16711 7.02075 1.9275 6.37492C2.79203 5.62494 4.00031 5.26556 5.13047 5.47911C5.14089 6.24994 5.10966 7.02075 5.10966 7.79158C4.59403 7.62491 3.98991 7.67178 3.5368 7.98428C3.20869 8.19783 2.9587 8.52594 2.8285 8.89573C2.71912 9.16136 2.75037 9.45302 2.75558 9.73427C2.88058 10.5884 3.70345 11.3072 4.57842 11.229C5.16173 11.2238 5.719 10.8853 6.02108 10.3905C6.12002 10.2186 6.22939 10.0415 6.23459 9.83842C6.28669 8.90614 6.26584 7.97908 6.27106 7.0468C6.27627 4.94786 6.26584 2.85414 6.28147 0.760422Z" fill="black"/>
</svg>
