<svg width="24" height="24" viewBox="0 0 24 24" fill="none" xmlns="http://www.w3.org/2000/svg">
<path d="M22.9999 8.99997C23.049 7.63491 22.6422 6.21881 21.9999 4.99997C21.5641 4.49986 20.6683 4.11605 19.9999 3.99997C17.2353 3.75853 14.7755 3.95549 11.9999 3.99997C9.23437 3.95514 6.7549 3.76454 3.99989 3.99997C3.45522 4.09507 2.40181 4.63456 1.99989 4.99997C1.10565 5.79154 1.09925 6.85554 0.999887 7.99997C0.854855 10.0576 0.854855 12.9423 0.999887 15C1.029 15.6441 0.830838 16.376 0.999887 17C1.11969 17.4817 1.65662 17.6303 1.99989 18C2.40455 18.3847 3.43988 18.9 3.99989 19C6.14194 19.2544 7.842 19.0448 9.99989 19C13.4775 19.0477 16.3931 19.267 19.9999 19C20.5732 18.905 21.583 18.3896 21.9999 18C22.2778 17.7326 21.8794 17.3595 21.9999 17C22.3549 15.9533 23.0127 15.1006 22.9999 14C23.0396 13.4659 22.9999 9.57219 22.9999 8.99997ZM9.99989 14V7.99997L15.9999 11C14.3505 11.8774 12.0566 12.9318 9.99989 14Z" fill="#2F4960"/>
</svg>
