<svg width="15" height="14" viewBox="0 0 15 14" fill="none" xmlns="http://www.w3.org/2000/svg">
<path d="M0.795555 0.969727L0.65918 1.51545L0.931992 1.58357L2.82649 2.05732L3.7453 3.43545L5.69655 9.2892L4.54515 11.5921H5.10224C5.03508 11.7282 5.00018 11.8779 5.00024 12.0296C5.00024 12.5786 5.45127 13.0296 6.00024 13.0296C6.54921 13.0296 7.00024 12.5786 7.00024 12.0296C7.00024 11.873 6.96343 11.7245 6.89824 11.5921H10.1022C10.0351 11.7282 10.0002 11.8779 10.0002 12.0296C10.0002 12.5786 10.4513 13.0296 11.0002 13.0296C11.5492 13.0296 12.0002 12.5786 12.0002 12.0296C12.0002 11.873 11.9634 11.7245 11.8982 11.5921H12.2815V11.0296H5.4553L6.17405 9.5921H12.2029L14.3904 3.0296H4.15074L3.17399 1.56432L1.06846 1.03798L0.795555 0.969727ZM4.39049 3.59204H7.21899V5.02954H4.86968L4.39049 3.59204ZM7.78149 3.59204H10.219V5.02954H7.78149V3.59204ZM10.7815 3.59204H13.61L13.1308 5.02954H10.7815V3.59204ZM5.05712 5.59204H7.21899V7.02954H5.5363L5.05712 5.59204ZM7.78149 5.59204H10.219V7.02954H7.78149V5.59204ZM10.7815 5.59204H12.9434L12.4642 7.02954H10.7815V5.59204ZM5.7238 7.59204H7.21899V9.02954H6.20293L5.7238 7.59204ZM7.78149 7.59204H10.219V9.02954H7.78149V7.59204ZM10.7815 7.59204H12.2767L11.7976 9.02954H10.7815V7.59204ZM6.00024 11.592C6.24524 11.592 6.43774 11.7845 6.43774 12.0295C6.43774 12.2745 6.24524 12.467 6.00024 12.467C5.75524 12.467 5.56274 12.2745 5.56274 12.0295C5.56274 11.7845 5.75524 11.592 6.00024 11.592ZM11.0002 11.592C11.2452 11.592 11.4377 11.7845 11.4377 12.0295C11.4377 12.2745 11.2452 12.467 11.0002 12.467C10.7552 12.467 10.5627 12.2745 10.5627 12.0295C10.5627 11.7845 10.7552 11.592 11.0002 11.592Z" fill="#2F4960"/>
</svg>
